<svg width="27" height="28" viewBox="0 0 27 28" fill="none" xmlns="http://www.w3.org/2000/svg">
<path d="M7.80336 7.48376H8.57193V8.2281H8.60574C9.01147 7.62847 10.1881 7.35646 10.8643 7.35646C12.5663 7.35646 13.5692 8.21782 13.5692 9.54102V12.8286H11.9688V9.80982C11.9688 8.93106 11.0673 8.47994 10.3233 8.47994C9.45556 8.47994 8.65085 8.94144 8.65085 10.0269V12.8286H7.05032V8.46581H4.58899V12.8286H3.09676V8.46581H2.43315L0 23.9958L23.2405 28L25.7347 12.0808C25.1803 12.6641 24.3081 12.9734 23.2301 12.9734C21.27 12.9734 19.9508 11.8362 19.9508 10.2338C19.9508 8.56931 21.157 7.33912 23.2678 7.33912C24.6224 7.33912 25.8781 7.85617 26.2302 8.91796L27 4.00422L3.75957 0L2.58705 7.48376H3.09676V7.07026C3.09676 6.12947 3.93982 5.03725 5.77914 5.03725C7.00542 5.03725 8.52015 5.3634 8.52015 6.99416H7.11362C7.11362 6.41431 6.21192 6.19688 5.77914 6.19688C5.1661 6.19688 4.58899 6.71872 4.58899 7.16321V7.48371H7.05032L7.80336 7.48376ZM19.8578 12.901H18.2933V12.3117C17.7158 12.7976 16.7962 12.9733 15.9878 12.9733C14.7302 12.9733 13.7292 12.4668 13.7292 11.3709C13.7292 10.1613 14.8584 9.87179 15.9878 9.7478C17.1043 9.61337 18.1438 9.64441 18.1438 9.04473C18.1438 8.41417 17.6048 8.32105 16.9631 8.32105C16.2702 8.32105 15.8211 8.54849 15.7568 9.1274H13.9345C14.0371 7.75251 15.4561 7.33901 16.9448 7.33901C18.2666 7.33901 19.8578 7.79415 19.8578 9.07614V12.901Z" fill="#0C0B15"/>
</svg>
