<svg width="18" height="16" viewBox="0 0 18 16" fill="none" xmlns="http://www.w3.org/2000/svg">
<path d="M0.776889 10.7959C0.339807 10.7959 -0.141048 10.4036 0.230492 9.90233C0.602032 9.40111 2.8531 6.78585 4.44851 5.08597C6.04387 3.38608 8.04159 1.45735 8.33865 1.44644C8.63368 1.43553 8.7315 1.46465 8.86316 2.31816C8.95059 2.8848 8.64459 3.10273 8.49162 3.25529C8.22934 3.53859 6.54656 4.36676 6.89621 8.15885C6.93992 8.52934 7.07106 8.33318 7.22403 8.11525C7.377 7.89732 10.5733 3.78926 12.3162 2.53614C13.9241 1.38008 15.1792 0.77083 15.7693 0.77083C16.3593 0.77083 17.2117 2.23102 17.5177 4.49749C17.8236 6.76403 17.6925 9.05239 17.3647 10.4907C17.0369 11.9291 16.5997 13.7816 16.1408 14.1521C15.6818 14.5226 14.7968 15.1001 12.4582 15.1001C10.1198 15.1001 9.73733 14.4572 9.73733 13.9559C9.73733 13.4547 10.3274 12.8009 10.6553 12.4522C10.9831 12.1035 13.54 9.24855 14.1957 7.33067C14.8513 5.41286 14.2613 5.41286 14.1957 5.41286C14.1301 5.41286 11.5294 6.80768 9.82475 8.83446C8.12008 10.8613 7.4098 11.5859 7.26232 11.7984C7.11478 12.0109 6.54107 12.7791 5.68873 12.7791C4.67245 12.7791 3.82321 11.8311 3.82321 10.3764C3.82321 9.02496 4.49223 7.33616 4.60691 7.05829C4.72165 6.78043 4.60691 6.61695 4.42663 6.74774C4.24634 6.87848 3.29567 7.8919 2.60722 9.26489C2.31219 9.88599 2.12642 10.7959 0.776889 10.7959Z" fill="white"/>
</svg>
