<svg width="30" height="11" viewBox="0 0 30 11" fill="none" xmlns="http://www.w3.org/2000/svg">
<path fill-rule="evenodd" clip-rule="evenodd" d="M3.84284 0.48778C1.89068 2.82342 0.0189213 5.71983 0.000152382 7.88479C-0.00715762 8.69937 0.2481 9.41049 0.860362 9.94911C1.74151 10.7248 2.71236 10.9984 3.67847 11C5.09029 11.002 6.49223 10.4217 7.58991 9.97427C9.43856 9.22109 29.8736 0.180225 29.8736 0.180225C30.0708 0.0795855 30.0338 -0.0458108 29.787 0.0167871C29.6875 0.0421483 7.54033 6.15681 7.54033 6.15681C7.12082 6.27769 6.68734 6.34091 6.25139 6.34481C4.54935 6.35507 3.03479 5.39255 3.04704 3.36426C3.05178 2.57062 3.29025 1.61354 3.84284 0.48778Z" fill="black"/>
</svg>
