<svg width="12" height="23" viewBox="0 0 12 23" fill="none" xmlns="http://www.w3.org/2000/svg">
<path d="M0.678261 5.19002H3.8087L4.53913 1.58432L9.18261 0L8.13913 5.19002H12L11.3217 8.52257H7.46087L5.89565 16.1164C5.7913 16.4988 5.68696 17.1544 5.68696 17.81C5.68696 18.848 6.36522 19.5036 7.35652 19.5036C8.13913 19.5036 8.92174 19.3397 9.44348 19.1211L8.71304 22.6176C7.98261 22.7815 7.14783 23 6.36522 23C3.44348 23 1.35652 21.7981 1.35652 18.4656C1.35652 17.0998 1.61739 15.7886 1.93043 14.4228L3.13043 8.52257H0L0.678261 5.19002Z" fill="#090909"/>
</svg>
