<svg width="45" height="23" viewBox="0 0 45 23" fill="none" xmlns="http://www.w3.org/2000/svg">
<path d="M7.04545 0C4.13295 0 2.1252 1.27796 0.605829 2.72314C0.605829 2.72314 -0.00767911 3.30453 7.28482e-05 3.32225L6.381 9.70317L12.7608 3.32225C11.5526 1.65891 9.27468 0 7.04545 0Z" fill="#FF6143"/>
<path d="M22.8018 0C19.8894 0 17.8816 1.27796 16.3623 2.72314C16.3623 2.72314 15.8019 3.28902 15.7764 3.32225L7.8894 11.2104L14.2604 17.5813L28.5172 3.32225C27.3091 1.65891 25.0322 0 22.8018 0Z" fill="#FF6143"/>
<path d="M38.6012 0C35.6888 0 33.681 1.27796 32.1616 2.72314C32.1616 2.72314 31.5781 3.29345 31.5559 3.32225L15.7786 19.1018L17.4486 20.7718C20.0321 23.3554 24.2614 23.3554 26.8449 20.7718L44.2967 3.32225H44.3166C43.1084 1.65891 40.8316 0 38.6012 0Z" fill="#FF6143"/>
</svg>
